<mxfile host="" modified="2020-06-20T20:42:11.142Z" agent="5.0 (Windows NT 10.0; Win64; x64) AppleWebKit/537.36 (KHTML, like Gecko) Code/1.46.1 Chrome/78.0.3904.130 Electron/7.3.1 Safari/537.36" etag="d7s3MHpUI6QQlXdw6ozv" version="13.1.3"><diagram id="6hGFLwfOUW9BJ-s0fimq" name="Page-1"><mxGraphModel dx="851" dy="800" grid="1" gridSize="10" guides="1" tooltips="1" connect="1" arrows="1" fold="1" page="1" pageScale="1" pageWidth="1169" pageHeight="827" background="#CCFFFF" math="0" shadow="0"><root><mxCell id="0"/><mxCell id="1" parent="0"/><mxCell id="6" value="" style="rounded=1;whiteSpace=wrap;html=1;fillColor=#fad9d5;strokeColor=#ae4132;" parent="1" vertex="1"><mxGeometry x="120" y="50" width="790" height="260" as="geometry"/></mxCell><mxCell id="5" value="" style="rounded=1;whiteSpace=wrap;html=1;fillColor=#f5f5f5;strokeColor=#666666;fontColor=#333333;" parent="1" vertex="1"><mxGeometry x="130" y="330" width="790" height="300" as="geometry"/></mxCell><mxCell id="2" value="" style="shape=cylinder;whiteSpace=wrap;html=1;boundedLbl=1;backgroundOutline=1;fillColor=#dae8fc;strokeColor=#6c8ebf;gradientColor=#7ea6e0;" parent="1" vertex="1"><mxGeometry x="240" y="140" width="100" height="90" as="geometry"/></mxCell><mxCell id="3" value="" style="shape=cylinder;whiteSpace=wrap;html=1;boundedLbl=1;backgroundOutline=1;fillColor=#dae8fc;strokeColor=#6c8ebf;gradientColor=#7ea6e0;" parent="1" vertex="1"><mxGeometry x="670" y="140" width="100" height="90" as="geometry"/></mxCell><mxCell id="4" value="" style="shape=cylinder;whiteSpace=wrap;html=1;boundedLbl=1;backgroundOutline=1;fillColor=#dae8fc;strokeColor=#6c8ebf;gradientColor=#7ea6e0;" parent="1" vertex="1"><mxGeometry x="670" y="430" width="100" height="90" as="geometry"/></mxCell><mxCell id="9" value="オリジナルリポジトリ" style="text;html=1;align=center;verticalAlign=middle;whiteSpace=wrap;rounded=0;fontFamily=Helvetica;fillColor=none;fontColor=#000000;" parent="1" vertex="1"><mxGeometry x="220" y="100" width="190" height="20" as="geometry"/></mxCell><mxCell id="13" value="" style="endArrow=classic;startArrow=none;html=1;fontColor=#000000;exitX=1;exitY=0.5;exitDx=0;exitDy=0;gradientColor=#97d077;fillColor=#d5e8d4;strokeColor=#82b366;shape=flexArrow;entryX=0;entryY=0.5;entryDx=0;entryDy=0;startFill=0;" edge="1" parent="1" source="2" target="3"><mxGeometry width="50" height="50" relative="1" as="geometry"><mxPoint x="490" y="340" as="sourcePoint"/><mxPoint x="540" y="290" as="targetPoint"/><Array as="points"><mxPoint x="460" y="120"/><mxPoint x="570" y="120"/></Array></mxGeometry></mxCell></root></mxGraphModel></diagram></mxfile>